<mxfile host="app.diagrams.net" agent="Mozilla/5.0 (Windows NT 10.0; Win64; x64) AppleWebKit/537.36 (KHTML, like Gecko) Chrome/126.0.0.0 Safari/537.36 OPR/112.0.0.0" version="24.7.13">
  <diagram name="Página-1" id="yuDog0mq29ZsXk27e8vn">
    <mxGraphModel dx="1380" dy="738" grid="1" gridSize="10" guides="1" tooltips="1" connect="1" arrows="1" fold="1" page="1" pageScale="1" pageWidth="827" pageHeight="1169" math="0" shadow="0">
      <root>
        <mxCell id="0" />
        <mxCell id="1" parent="0" />
        <mxCell id="CD7_bQYzNYBTRTxQHYSp-4" value="" style="fontColor=#0066CC;verticalAlign=top;verticalLabelPosition=bottom;labelPosition=center;align=center;html=1;outlineConnect=0;fillColor=#CCCCCC;strokeColor=#6881B3;gradientColor=none;gradientDirection=north;strokeWidth=2;shape=mxgraph.networks.pc;" vertex="1" parent="1">
          <mxGeometry x="150" y="870" width="70" height="50" as="geometry" />
        </mxCell>
        <mxCell id="CD7_bQYzNYBTRTxQHYSp-5" value="" style="fontColor=#0066CC;verticalAlign=top;verticalLabelPosition=bottom;labelPosition=center;align=center;html=1;outlineConnect=0;fillColor=#CCCCCC;strokeColor=#6881B3;gradientColor=none;gradientDirection=north;strokeWidth=2;shape=mxgraph.networks.laptop;" vertex="1" parent="1">
          <mxGeometry x="366" y="870" width="70" height="50" as="geometry" />
        </mxCell>
        <mxCell id="CD7_bQYzNYBTRTxQHYSp-6" value="" style="fontColor=#0066CC;verticalAlign=top;verticalLabelPosition=bottom;labelPosition=center;align=center;html=1;outlineConnect=0;fillColor=#CCCCCC;strokeColor=#6881B3;gradientColor=none;gradientDirection=north;strokeWidth=2;shape=mxgraph.networks.pc;" vertex="1" parent="1">
          <mxGeometry x="590" y="870" width="70" height="50" as="geometry" />
        </mxCell>
        <mxCell id="CD7_bQYzNYBTRTxQHYSp-7" value="" style="group" vertex="1" connectable="0" parent="1">
          <mxGeometry x="150" y="525" width="70" height="100" as="geometry" />
        </mxCell>
        <mxCell id="CD7_bQYzNYBTRTxQHYSp-3" value="" style="fontColor=#0066CC;verticalAlign=top;verticalLabelPosition=bottom;labelPosition=center;align=center;html=1;outlineConnect=0;fillColor=#CCCCCC;strokeColor=#6881B3;gradientColor=none;gradientDirection=north;strokeWidth=2;shape=mxgraph.networks.server;" vertex="1" parent="CD7_bQYzNYBTRTxQHYSp-7">
          <mxGeometry width="50" height="80" as="geometry" />
        </mxCell>
        <mxCell id="CD7_bQYzNYBTRTxQHYSp-2" value="" style="image;sketch=0;aspect=fixed;html=1;points=[];align=center;fontSize=12;image=img/lib/mscae/Active_Directory.svg;" vertex="1" parent="CD7_bQYzNYBTRTxQHYSp-7">
          <mxGeometry x="30" y="60" width="40" height="40" as="geometry" />
        </mxCell>
        <mxCell id="CD7_bQYzNYBTRTxQHYSp-15" value="" style="group" vertex="1" connectable="0" parent="1">
          <mxGeometry x="348.81" y="666" width="112.37" height="164" as="geometry" />
        </mxCell>
        <mxCell id="CD7_bQYzNYBTRTxQHYSp-8" value="" style="rounded=1;arcSize=10;strokeColor=#6c8ebf;fillColor=#dae8fc;" vertex="1" parent="CD7_bQYzNYBTRTxQHYSp-15">
          <mxGeometry x="-10" width="122.37" height="164" as="geometry" />
        </mxCell>
        <mxCell id="CD7_bQYzNYBTRTxQHYSp-9" value="João" style="sketch=0;outlineConnect=0;strokeColor=#6c8ebf;fillColor=#dae8fc;dashed=0;verticalLabelPosition=bottom;verticalAlign=top;align=center;html=1;fontSize=12;fontStyle=0;aspect=fixed;shape=mxgraph.aws4.resourceIcon;resIcon=mxgraph.aws4.user;" vertex="1" parent="CD7_bQYzNYBTRTxQHYSp-15">
          <mxGeometry x="12.300241187384046" y="9.11111111111111" width="25.01743970315399" height="25.01743970315399" as="geometry" />
        </mxCell>
        <mxCell id="CD7_bQYzNYBTRTxQHYSp-10" value="Maria" style="sketch=0;outlineConnect=0;strokeColor=#6c8ebf;fillColor=#dae8fc;dashed=0;verticalLabelPosition=bottom;verticalAlign=top;align=center;html=1;fontSize=12;fontStyle=0;aspect=fixed;shape=mxgraph.aws4.resourceIcon;resIcon=mxgraph.aws4.user;" vertex="1" parent="CD7_bQYzNYBTRTxQHYSp-15">
          <mxGeometry x="45.65682745825603" y="9.11111111111111" width="25.01743970315399" height="25.01743970315399" as="geometry" />
        </mxCell>
        <mxCell id="CD7_bQYzNYBTRTxQHYSp-11" value="José" style="sketch=0;outlineConnect=0;strokeColor=#6c8ebf;fillColor=#dae8fc;dashed=0;verticalLabelPosition=bottom;verticalAlign=top;align=center;html=1;fontSize=12;fontStyle=0;aspect=fixed;shape=mxgraph.aws4.resourceIcon;resIcon=mxgraph.aws4.user;" vertex="1" parent="CD7_bQYzNYBTRTxQHYSp-15">
          <mxGeometry x="77.76254174397032" y="9.11111111111111" width="25.01743970315399" height="25.01743970315399" as="geometry" />
        </mxCell>
        <mxCell id="CD7_bQYzNYBTRTxQHYSp-12" value="Jorge" style="sketch=0;outlineConnect=0;strokeColor=#6c8ebf;fillColor=#dae8fc;dashed=0;verticalLabelPosition=bottom;verticalAlign=top;align=center;html=1;fontSize=12;fontStyle=0;aspect=fixed;shape=mxgraph.aws4.resourceIcon;resIcon=mxgraph.aws4.user;" vertex="1" parent="CD7_bQYzNYBTRTxQHYSp-15">
          <mxGeometry x="12.300241187384046" y="63.55" width="25.01743970315399" height="25.01743970315399" as="geometry" />
        </mxCell>
        <mxCell id="CD7_bQYzNYBTRTxQHYSp-13" value="Felipe" style="sketch=0;outlineConnect=0;strokeColor=#6c8ebf;fillColor=#dae8fc;dashed=0;verticalLabelPosition=bottom;verticalAlign=top;align=center;html=1;fontSize=12;fontStyle=0;aspect=fixed;shape=mxgraph.aws4.resourceIcon;resIcon=mxgraph.aws4.user;" vertex="1" parent="CD7_bQYzNYBTRTxQHYSp-15">
          <mxGeometry x="45.65682745825603" y="63.55" width="25.01743970315399" height="25.01743970315399" as="geometry" />
        </mxCell>
        <mxCell id="CD7_bQYzNYBTRTxQHYSp-14" value="Luís" style="sketch=0;outlineConnect=0;strokeColor=#6c8ebf;fillColor=#dae8fc;dashed=0;verticalLabelPosition=bottom;verticalAlign=top;align=center;html=1;fontSize=12;fontStyle=0;aspect=fixed;shape=mxgraph.aws4.resourceIcon;resIcon=mxgraph.aws4.user;" vertex="1" parent="CD7_bQYzNYBTRTxQHYSp-15">
          <mxGeometry x="77.76254174397032" y="63.55" width="25.01743970315399" height="25.01743970315399" as="geometry" />
        </mxCell>
        <mxCell id="CD7_bQYzNYBTRTxQHYSp-22" value="Faturamento" style="sketch=0;pointerEvents=1;shadow=0;dashed=0;html=1;strokeColor=#6c8ebf;labelPosition=center;verticalLabelPosition=bottom;verticalAlign=top;align=center;fillColor=#dae8fc;shape=mxgraph.mscae.intune.user_group" vertex="1" parent="CD7_bQYzNYBTRTxQHYSp-15">
          <mxGeometry x="16.469814471243044" y="116.62222222222222" width="29.395491651205937" height="27.333333333333332" as="geometry" />
        </mxCell>
        <mxCell id="CD7_bQYzNYBTRTxQHYSp-32" value="RH" style="sketch=0;pointerEvents=1;shadow=0;dashed=0;html=1;strokeColor=#6c8ebf;labelPosition=center;verticalLabelPosition=bottom;verticalAlign=top;align=center;fillColor=#dae8fc;shape=mxgraph.mscae.intune.user_group" vertex="1" parent="CD7_bQYzNYBTRTxQHYSp-15">
          <mxGeometry x="70.67426716141001" y="116.62222222222222" width="29.395491651205937" height="27.333333333333332" as="geometry" />
        </mxCell>
        <mxCell id="CD7_bQYzNYBTRTxQHYSp-16" value="" style="group" vertex="1" connectable="0" parent="1">
          <mxGeometry x="375" y="525" width="70" height="100" as="geometry" />
        </mxCell>
        <mxCell id="CD7_bQYzNYBTRTxQHYSp-17" value="" style="fontColor=#0066CC;verticalAlign=top;verticalLabelPosition=bottom;labelPosition=center;align=center;html=1;outlineConnect=0;fillColor=#CCCCCC;strokeColor=#6881B3;gradientColor=none;gradientDirection=north;strokeWidth=2;shape=mxgraph.networks.server;" vertex="1" parent="CD7_bQYzNYBTRTxQHYSp-16">
          <mxGeometry width="50" height="80" as="geometry" />
        </mxCell>
        <mxCell id="CD7_bQYzNYBTRTxQHYSp-19" value="" style="group" vertex="1" connectable="0" parent="1">
          <mxGeometry x="590" y="525" width="70" height="100" as="geometry" />
        </mxCell>
        <mxCell id="CD7_bQYzNYBTRTxQHYSp-20" value="" style="fontColor=#0066CC;verticalAlign=top;verticalLabelPosition=bottom;labelPosition=center;align=center;html=1;outlineConnect=0;fillColor=#CCCCCC;strokeColor=#6881B3;gradientColor=none;gradientDirection=north;strokeWidth=2;shape=mxgraph.networks.server;" vertex="1" parent="CD7_bQYzNYBTRTxQHYSp-19">
          <mxGeometry width="50" height="80" as="geometry" />
        </mxCell>
        <mxCell id="CD7_bQYzNYBTRTxQHYSp-21" value="" style="image;html=1;image=img/lib/clip_art/general/Full_Folder_128x128.png" vertex="1" parent="CD7_bQYzNYBTRTxQHYSp-19">
          <mxGeometry x="30" y="55" width="30" height="40" as="geometry" />
        </mxCell>
        <mxCell id="CD7_bQYzNYBTRTxQHYSp-33" value="" style="endArrow=none;html=1;rounded=0;entryX=0.5;entryY=1;entryDx=0;entryDy=0;entryPerimeter=0;exitX=0.99;exitY=0.463;exitDx=0;exitDy=0;exitPerimeter=0;" edge="1" parent="1" source="CD7_bQYzNYBTRTxQHYSp-8" target="CD7_bQYzNYBTRTxQHYSp-20">
          <mxGeometry width="50" height="50" relative="1" as="geometry">
            <mxPoint x="390" y="810" as="sourcePoint" />
            <mxPoint x="440" y="760" as="targetPoint" />
          </mxGeometry>
        </mxCell>
        <mxCell id="CD7_bQYzNYBTRTxQHYSp-34" value="" style="endArrow=none;html=1;rounded=0;entryX=0.5;entryY=0;entryDx=0;entryDy=0;entryPerimeter=0;exitX=0.5;exitY=1;exitDx=0;exitDy=0;" edge="1" parent="1" source="CD7_bQYzNYBTRTxQHYSp-8" target="CD7_bQYzNYBTRTxQHYSp-5">
          <mxGeometry width="50" height="50" relative="1" as="geometry">
            <mxPoint x="390" y="810" as="sourcePoint" />
            <mxPoint x="440" y="760" as="targetPoint" />
          </mxGeometry>
        </mxCell>
        <mxCell id="CD7_bQYzNYBTRTxQHYSp-36" value="" style="endArrow=none;html=1;rounded=0;entryX=1;entryY=0.5;entryDx=0;entryDy=0;exitX=0.5;exitY=0.07;exitDx=0;exitDy=0;exitPerimeter=0;" edge="1" parent="1" source="CD7_bQYzNYBTRTxQHYSp-6" target="CD7_bQYzNYBTRTxQHYSp-8">
          <mxGeometry width="50" height="50" relative="1" as="geometry">
            <mxPoint x="390" y="810" as="sourcePoint" />
            <mxPoint x="440" y="760" as="targetPoint" />
          </mxGeometry>
        </mxCell>
        <mxCell id="CD7_bQYzNYBTRTxQHYSp-37" value="" style="endArrow=none;html=1;rounded=0;entryX=0.5;entryY=0;entryDx=0;entryDy=0;exitX=0.5;exitY=1;exitDx=0;exitDy=0;exitPerimeter=0;" edge="1" parent="1" source="CD7_bQYzNYBTRTxQHYSp-17" target="CD7_bQYzNYBTRTxQHYSp-8">
          <mxGeometry width="50" height="50" relative="1" as="geometry">
            <mxPoint x="400" y="610" as="sourcePoint" />
            <mxPoint x="440" y="760" as="targetPoint" />
          </mxGeometry>
        </mxCell>
        <mxCell id="CD7_bQYzNYBTRTxQHYSp-38" value="" style="endArrow=none;html=1;rounded=0;exitX=0;exitY=0.5;exitDx=0;exitDy=0;entryX=0.5;entryY=1;entryDx=0;entryDy=0;entryPerimeter=0;" edge="1" parent="1" source="CD7_bQYzNYBTRTxQHYSp-8" target="CD7_bQYzNYBTRTxQHYSp-3">
          <mxGeometry width="50" height="50" relative="1" as="geometry">
            <mxPoint x="130" y="655" as="sourcePoint" />
            <mxPoint x="170" y="670" as="targetPoint" />
          </mxGeometry>
        </mxCell>
        <mxCell id="CD7_bQYzNYBTRTxQHYSp-40" value="" style="endArrow=none;html=1;rounded=0;entryX=0;entryY=0.5;entryDx=0;entryDy=0;exitX=0.5;exitY=0.07;exitDx=0;exitDy=0;exitPerimeter=0;" edge="1" parent="1" source="CD7_bQYzNYBTRTxQHYSp-4" target="CD7_bQYzNYBTRTxQHYSp-8">
          <mxGeometry width="50" height="50" relative="1" as="geometry">
            <mxPoint x="390" y="810" as="sourcePoint" />
            <mxPoint x="440" y="760" as="targetPoint" />
          </mxGeometry>
        </mxCell>
      </root>
    </mxGraphModel>
  </diagram>
</mxfile>
